<svg xmlns="http://www.w3.org/2000/svg" 
    xmlns:xlink="http://www.w3.org/1999/xlink" 
    version="1.1" x="0px" y="0px" 
    viewBox="0 0 100 125" 
    style="enable-background:new 0 0 100 100;" 
    xml:space="preserve">
    <g>
        <path d="M50,0C29.883,0,13.574,16.309,13.574,36.426c0,15.803,10.064,29.254,24.133,34.297L50,100l12.293-29.277   c14.068-5.043,24.133-18.494,24.133-34.297C86.426,16.309,70.117,0,50,0z M69.772,36.095c0,0.863-0.722,1.563-1.614,1.563h-1.4   v12.848h-1.781v3.486c0,1.226-1.025,2.22-2.291,2.22h-3.122c-1.265,0-2.29-0.994-2.29-2.22v-3.486c-2.129,0-12.507,0-14.636,0   v3.486c0,1.226-1.025,2.22-2.291,2.22h-3.122c-1.265,0-2.291-0.994-2.291-2.22v-3.486h-1.692V37.658h-1.401   c-0.892,0-1.614-0.7-1.614-1.563v-7.924c0-0.863,0.722-1.564,1.614-1.564h1.401v-4.602c0-3.532,3.082-5.338,6.472-5.338h10.284   h0.004h10.284c3.39,0,6.472,1.806,6.472,5.338v4.602h1.4c0.893,0,1.614,0.701,1.614,1.564V36.095z M41.052,44.736   c0,1.442-1.207,2.612-2.696,2.612c-1.488,0-2.695-1.169-2.695-2.612c0-1.443,1.207-2.613,2.695-2.613   C39.845,42.123,41.052,43.293,41.052,44.736z M36.089,24.114h11.988v13.897H36.089V24.114z M63.911,38.012H51.924V24.114h11.987   V38.012z M64.339,44.736c0,1.442-1.207,2.612-2.695,2.612c-1.489,0-2.696-1.169-2.696-2.612c0-1.443,1.207-2.613,2.696-2.613   C63.132,42.123,64.339,43.293,64.339,44.736z"/>
    </g>
</svg>